<svg height="124" viewBox="0 0 124 124" width="124" xmlns="http://www.w3.org/2000/svg"><g fill="none" fill-rule="evenodd"><path d="m102 65.9-13 13h-2v-13h-46-21v10h8s2 0 2 2v6 15c.4 7.6 5.1 8 13 8h40c2.6 0 4-.7 4-4v-12h2l13 12c1.2 1 3.1 1.4 4 1 .8-.4 2-1.4 2-3v-32c0-1.9-.9-3.4-2-4s-3 0-4 1zm-20-10c9.6-1.9 15-11 15-21 0-10.9-9-20-20-20-7.3 0-13.6 3.9-17 10h-1c-3.4-6.1-9.7-10-17-10-11 0-20 9.1-20 20 0 10 7.3 18.7 16 21z" stroke="#d0d0d0" stroke-width="4"/><g fill="#d0d0d0"><path d="m46.5 36.6 4.2-4.2c.8-.8.8-2 0-2.8s-2-.8-2.8 0l-4.2 4.2-4.2-4.2c-.8-.8-2-.8-2.8 0s-.8 2 0 2.8l4.2 4.2-4.2 4.2c-.8.8-.8 2 0 2.8s2 .8 2.8 0l4.2-4.2 4.2 4.2c.8.8 2 .8 2.8 0s.8-2 0-2.8z"/><path d="m78.5 36.6 4.2-4.2c.8-.8.8-2 0-2.8s-2-.8-2.8 0l-4.2 4.2-4.2-4.2c-.8-.8-2-.8-2.8 0s-.8 2 0 2.8l4.2 4.2-4.2 4.2c-.8.8-.8 2 0 2.8s2 .8 2.8 0l4.2-4.2 4.2 4.2c.8.8 2 .8 2.8 0s.8-2 0-2.8z"/><path d="m46.5 89.2c3.2-3.3 7.4-5.3 12.3-5.3s9.4 1.9 12.3 5.3c.4.5.9.7 1.5.7.5 0 .9-.2 1.3-.5.8-.7.9-2 .2-2.8-3.7-4.2-9.2-6.7-15.3-6.7s-11.6 2.4-15.3 6.7c-.7.8-.6 2.1.2 2.8.4.3.8.5 1.3.5s1-.2 1.5-.7z"/></g></g></svg>